# xmcd
# 
# Track frame offsets:
#     150
#     16297
#     37526
#     51630
#     60813
#     77234
#     94566
#     107140
#     120681
#     136607
#     149184
#     166177
# 
# Disc length: 2389
# 
# Revision: 0
# Processed by: cddbd v1.5.2PL0 Copyright (c) Steve Scherf et al.
# Submitted via: fre:ac v1.0.31
# 
DISCID=9509530c
DTITLE=Mark Chesnutt - Duets
DYEAR=2019
DGENRE=Country
TTITLE0=A Good Way To Get On My Bad Side (with Tracy Byrd)
TTITLE1=A Couple More Years (with Amber Digby)
TTITLE2=Good Ones and Bad Ones (with George Jones)
TTITLE3=Rockin' The Roadhouse Down (with Tracy Lawrence and Joe Diffie)
TTITLE4=Political Incorrectness (with Kevin Fowler)
TTITLE5=Rainy Day Woman (with Waylon Jennings)
TTITLE6=Talking To Hank (with George Jones)
TTITLE7=Stay All Night (with Ray Benson)
TTITLE8=Make Memories with Me (with Lee Ann Womack)
TTITLE9=This Side of The Door (with Gene Watson)
TTITLE10=When the Grass Grows Over Me (with George Jones)
TTITLE11=Honky Tonk Song (with Tom Astor)
EXTD=
EXTT0=
EXTT1=
EXTT2=
EXTT3=
EXTT4=
EXTT5=
EXTT6=
EXTT7=
EXTT8=
EXTT9=
EXTT10=
EXTT11=
PLAYORDER=
